<svg width="64" height="64" viewBox="0 0 64 64" fill="none" xmlns="http://www.w3.org/2000/svg">
  <path d="M53.1494 5.7119H49.3408V5.3877C49.3408 3.0444 47.4345 1.1382 45.0918 1.1382C42.751 1.1382 40.8457 3.0445 40.8457 5.3877V5.7119H22.4941V5.2461C22.4941 2.9048 20.5889 1 18.248 1C15.9052 1 13.999 2.9048 13.999 5.2461V5.7119H10.8535C6.3789 5.7119 2.7392 9.5752 2.7392 14.3242V54.3877C2.7392 59.1367 6.3788 63 10.8535 63H53.1494C57.6221 63 61.2607 59.1367 61.2607 54.3877V14.3242C61.2607 9.5752 57.6221 5.7119 53.1494 5.7119ZM42.8457 5.3877C42.8457 4.1475 43.8535 3.1382 45.0918 3.1382C46.332 3.1382 47.3408 4.1475 47.3408 5.3877V8.4473C47.3408 9.6875 46.332 10.6968 45.0918 10.6968C43.8535 10.6968 42.8457 9.6875 42.8457 8.4473V5.3877ZM15.999 5.2461C15.999 4.0078 17.0078 3 18.248 3C19.4863 3 20.4941 4.0078 20.4941 5.2461V8.3091C20.4941 9.5474 19.4863 10.5552 18.248 10.5552C17.0078 10.5552 15.999 9.5474 15.999 8.3091V5.2461ZM59.2607 54.3877C59.2607 58.0337 56.5195 61 53.1494 61H10.8535C7.4824 61 4.7392 58.0337 4.7392 54.3877V17.8652H59.2607V54.3877ZM59.2607 15.8652H4.7393V14.3242C4.7393 10.6782 7.4825 7.7119 10.8536 7.7119H13.9991V8.3091C13.9991 10.6504 15.9054 12.5552 18.2481 12.5552C20.5889 12.5552 22.4942 10.6504 22.4942 8.3091V7.7119H40.8458V8.4473C40.8458 10.7906 42.7511 12.6968 45.0919 12.6968C47.4347 12.6968 49.3409 10.7905 49.3409 8.4473V7.7119H53.1495C56.5196 7.7119 59.2608 10.6782 59.2608 14.3242L59.2607 15.8652Z" fill="#928F94"/>
</svg>