<svg width="16" height="16" viewBox="0 0 16 16" fill="none" xmlns="http://www.w3.org/2000/svg">
  <path d="M13.7333 0.4L8 6.13333L2.26667 0.4C1.73333 -0.133333 0.933333 -0.133333 0.4 0.4C-0.133333 0.933333 -0.133333 1.73333 0.4 2.26667L6.13333 8L0.4 13.7333C-0.133333 14.2667 -0.133333 15.0667 0.4 15.4667L0.533333 15.6C1.06667 16.1333 1.86667 16.1333 2.26667 15.6L8 9.86667L13.6 15.4667C14.1333 16 14.9333 16 15.4667 15.4667C16 14.9333 16 14.1333 15.4667 13.6L9.86667 8L15.6 2.26667C16.1333 1.73333 16.1333 0.933333 15.6 0.533333L15.4667 0.4C14.9333 -0.133333 14.1333 -0.133333 13.7333 0.4Z" fill="#FFA800"/>
</svg>