<svg width="24" height="24" viewBox="0 0 24 24" fill="none" xmlns="http://www.w3.org/2000/svg">
  <path d="M19.7369 5.65079L18.1053 6.97354C19.2632 8.40211 19.8948 10.2011 19.8948 12C19.8948 16.3915 16.3685 19.9365 12.0001 19.9365C11.5264 19.9365 11.0001 19.8836 10.5264 19.7778L10.158 21.8413C10.7895 21.9471 11.4211 22 12.0001 22C17.5264 22 22.0001 17.5026 22.0001 11.9471C22.0001 9.72487 21.2106 7.44973 19.7369 5.65079Z" fill="#FFA800" stroke="#FFA800" stroke-width="0.5"/>
  <path d="M15.6842 3.5873L21.9474 4.43386L16.7895 9.61905L15.6842 3.5873ZM12 2C6.47368 2 2 6.49735 2 12.0529C2 14.4868 2.84211 16.8148 4.42105 18.6138L6 17.2381C4.78947 15.8095 4.10526 13.9577 4.10526 12.0529C4.10526 7.66138 7.63158 4.1164 12 4.1164C12.4737 4.1164 13 4.16931 13.4737 4.27513L13.8421 2.21164C13.2632 2.05291 12.6316 2 12 2Z" fill="#FFA800" stroke="#FFA800" stroke-width="0.5"/>
  <path d="M8.31577 20.5185L2.05261 19.6719L7.21051 14.4868L8.31577 20.5185Z" fill="#FFA800" stroke="#FFA800" stroke-width="0.5"/>
</svg>